<?xml version="1.0" standalone="no"?>
<!DOCTYPE svg PUBLIC "-//W3C//DTD SVG 20010904//EN"
 "http://www.w3.org/TR/2001/REC-SVG-20010904/DTD/svg10.dtd">
<svg version="1.0" xmlns="http://www.w3.org/2000/svg"
 width="320.000000pt" height="320.000000pt" viewBox="0 0 320.000000 320.000000"
 preserveAspectRatio="xMidYMid meet">
<metadata>
Created by potrace 1.14, written by Peter Selinger 2001-2017
</metadata>
<g transform="translate(0.000000,320.000000) scale(0.100000,-0.100000)"
fill="#000000" stroke="none">
<path d="M1600 3151 c-19 -4 -51 -16 -70 -26 -48 -25 -84 -28 -127 -10 -129
54 -243 30 -340 -73 -26 -27 -84 -127 -88 -152 0 -3 -6 -21 -13 -40 -13 -39
-23 -83 -27 -120 -1 -14 -3 -25 -5 -25 -3 0 -8 -47 -11 -122 l-4 -73 -36 0
c-81 0 -141 -98 -141 -230 0 -14 1 -27 2 -30 1 -3 3 -17 5 -32 5 -41 58 -111
115 -152 27 -20 54 -36 59 -36 5 0 14 -14 21 -30 7 -17 26 -45 41 -61 16 -17
29 -34 29 -38 0 -23 159 -142 198 -147 8 -2 17 -6 20 -9 11 -11 -77 5 -114 21
-19 8 -34 12 -34 9 0 -11 -155 90 -190 124 -96 93 -191 268 -225 417 -27 115
-41 195 -45 254 -1 28 -17 -11 -25 -65 -30 -190 -38 -371 -22 -490 5 -33 10
-71 11 -85 1 -14 8 -45 16 -70 7 -25 14 -50 15 -55 2 -6 12 -32 24 -57 11 -26
21 -50 21 -53 0 -4 11 -21 25 -39 14 -18 25 -36 25 -41 0 -12 -123 4 -136 18
-4 4 -13 7 -21 7 -27 0 31 -68 87 -101 30 -19 58 -33 63 -31 4 1 7 -2 7 -8 0
-6 3 -9 8 -8 4 1 18 -4 32 -10 59 -26 125 -55 130 -57 54 -19 54 -21 4 -34
-247 -63 -378 -209 -376 -417 0 -40 6 -90 13 -112 11 -40 11 -41 -25 -79 -47
-50 -76 -126 -70 -184 3 -24 10 -46 15 -47 5 -2 9 -11 9 -20 0 -45 112 -175
197 -229 15 -9 30 -20 33 -23 17 -19 172 -83 231 -96 145 -31 194 -35 379 -32
116 2 201 -1 210 -7 8 -5 17 -10 20 -10 3 -1 20 -9 38 -18 17 -10 32 -15 32
-13 0 3 20 -3 43 -13 42 -18 65 -23 172 -39 87 -12 331 -6 360 9 6 3 25 6 44
8 18 1 42 6 53 12 11 6 22 8 25 5 4 -3 11 -2 17 3 6 6 23 12 36 14 14 2 32 6
40 10 37 13 57 19 80 23 62 11 95 30 148 82 76 76 90 95 125 171 40 88 54 152
51 232 -5 124 -59 230 -156 311 -53 44 -106 81 -120 84 -5 1 -10 3 -13 4 -3 1
-9 3 -14 4 -21 3 -23 17 -6 36 10 11 15 20 10 20 -4 0 -1 7 6 16 7 9 14 21 15
28 28 139 28 144 -2 234 -19 58 -57 115 -98 148 -36 29 -52 35 -103 37 -30 1
-33 4 -35 37 -3 88 -31 163 -75 207 -10 10 -40 29 -66 42 -69 36 -201 34 -309
-5 -51 -18 -58 -18 -31 1 27 19 76 97 98 157 10 26 21 46 25 43 4 -2 16 5 28
15 12 11 24 20 27 20 4 0 23 12 43 28 104 78 144 146 141 239 -1 40 -9 74 -20
93 -21 34 -97 92 -110 84 -5 -3 -9 30 -9 73 0 43 -5 105 -11 138 -6 33 -12 69
-14 80 -2 11 -4 20 -5 20 -1 0 -3 9 -5 20 -6 30 -68 155 -77 155 -4 0 -8 5 -8
11 0 7 -15 27 -34 45 -19 18 -31 35 -28 38 3 3 -2 6 -11 6 -9 0 -17 5 -17 10
0 6 -7 10 -15 10 -8 0 -15 3 -15 8 0 12 -78 42 -108 41 -15 -1 -43 -4 -62 -8z"/>
</g>
</svg>
